<?xml version="1.0" standalone="no"?>
<!DOCTYPE svg PUBLIC "-//W3C//DTD SVG 20010904//EN"
 "http://www.w3.org/TR/2001/REC-SVG-20010904/DTD/svg10.dtd">
<svg version="1.0" xmlns="http://www.w3.org/2000/svg"
 width="732.000000pt" height="1280.000000pt" viewBox="0 0 732.000000 1280.000000"
 preserveAspectRatio="xMidYMid meet">
<g transform="translate(0.000000,1280.000000) scale(0.100000,-0.100000)"
fill="#000000" stroke="none">
<path d="M3530 12733 c-381 -334 -638 -603 -925 -963 -622 -783 -1104 -1715
-1375 -2654 -197 -686 -290 -1267 -321 -2023 -28 -663 36 -1436 180 -2178 10
-55 17 -103 15 -107 -2 -3 -37 -14 -77 -23 -85 -19 -228 -85 -318 -146 -95
-63 -236 -210 -312 -325 -204 -307 -329 -724 -367 -1224 -6 -80 -15 -175 -20
-213 -13 -88 -13 -376 0 -497 5 -52 14 -169 20 -260 34 -513 134 -1156 287
-1832 l47 -208 40 0 c23 0 57 3 77 6 l35 6 13 222 c36 637 69 990 142 1501
132 922 341 1499 588 1625 51 26 142 27 190 2 32 -16 37 -27 91 -182 119 -345
297 -793 452 -1140 l74 -165 674 -5 675 -5 3 -972 2 -973 235 0 235 0 0 969
c0 874 2 969 16 975 9 3 314 6 678 6 l663 0 96 218 c187 425 350 841 461 1179
26 77 29 82 67 97 128 52 253 -9 361 -174 199 -304 355 -900 457 -1750 6 -47
15 -123 21 -170 27 -223 58 -623 81 -1036 l13 -222 35 -6 c20 -3 54 -6 77 -6
l40 0 47 208 c153 676 253 1319 287 1832 6 91 15 208 20 260 13 121 13 409 0
497 -5 38 -14 133 -20 213 -38 500 -163 917 -367 1224 -76 115 -217 262 -312
325 -90 61 -234 127 -319 146 -40 9 -76 22 -78 29 -3 7 9 86 25 175 70 370
109 666 153 1166 17 191 17 1050 0 1250 -56 651 -147 1158 -306 1707 -365
1252 -1067 2434 -1972 3318 -93 91 -224 211 -291 268 -118 99 -123 102 -170
101 -45 0 -53 -5 -123 -66z"/>
</g>
</svg>
